<svg width="91" height="91" viewBox="0 0 91 91" fill="none" xmlns="http://www.w3.org/2000/svg">
<path fill-rule="evenodd" clip-rule="evenodd" d="M61.0916 3.3264C66.4514 1.86156 71.9839 5.01944 73.4488 10.3792L87.3028 61.0701C88.7677 66.4303 85.6103 71.9627 80.2505 73.4276L29.5592 87.2817C24.1994 88.7465 18.667 85.5891 17.202 80.2289L3.34805 29.538C1.8832 24.1782 5.04052 18.6454 10.4003 17.1805L61.0916 3.3264Z" fill="white"/>
<path fill-rule="evenodd" clip-rule="evenodd" d="M61.0913 3.32657C66.4511 1.86172 71.9836 5.0196 73.4485 10.3794L87.3025 61.0703C88.7674 66.4305 85.61 71.9629 80.2502 73.4277L29.5589 87.2818C24.1991 88.7467 18.6667 85.5892 17.2018 80.229L3.34776 29.5381C1.88291 24.1784 5.04023 18.6455 10.4 17.1807L61.0913 3.32657Z" fill="#0277FF"/>
<path fill-rule="evenodd" clip-rule="evenodd" d="M54.41 35.5955C57.5417 34.9486 59.3861 31.717 58.3502 28.6916C57.496 26.1965 54.8728 24.6996 52.2901 25.233C49.1584 25.8798 47.314 29.1115 48.3499 32.1369C49.2043 34.6319 51.8273 36.1291 54.41 35.5955ZM32.4732 41.6239C35.6139 40.9753 37.4637 37.7343 36.4248 34.7004C35.568 32.1982 32.9375 30.697 30.3473 31.2319C27.2068 31.8807 25.3571 35.1213 26.396 38.1553C27.2526 40.6575 29.8834 42.1589 32.4732 41.6239ZM30.1149 54.4441C34.4476 61.1323 42.5234 64.2142 50.2107 62.1133C57.898 60.0123 63.2837 53.2513 63.6124 45.2891L56.2096 44.9835C56.0144 49.7077 52.8187 53.7195 48.2574 54.9661C43.696 56.2127 38.904 54.384 36.3332 50.4158L30.1149 54.4441Z" fill="white"/>
</svg>
